<svg xmlns="http://www.w3.org/2000/svg" xmlns:svg="http://www.w3.org/2000/svg" id="svg4" width="48" height="48" enable-background="new 0 0 24 24" version="1.1" viewBox="0 0 48 48" xml:space="preserve"><metadata id="metadata10"/><g id="g855"><path style="fill:none;stroke:#000;stroke-width:2;stroke-linejoin:round" id="rect1443" d="M 11,13 V 9.0857143 C 11,7.3762286 12.376229,6 14.085714,6 H 33.914286 C 35.623771,6 37,7.3762286 37,9.0857143 V 13 m 0,20 v 5.914286 C 37,40.623771 35.623771,42 33.914286,42 H 14.085714 C 12.376229,42 11,40.623771 11,38.914286 V 33"/><path style="fill:none;fill-rule:evenodd;stroke:#000;stroke-width:2;stroke-linecap:butt;stroke-linejoin:miter;stroke-dasharray:none;stroke-opacity:1" id="path904" d="M 41,13 V 33"/><path style="fill:none;fill-rule:evenodd;stroke:#000;stroke-width:2;stroke-linecap:butt;stroke-linejoin:miter;stroke-dasharray:none;stroke-opacity:1" id="path904-5" d="M 15,13 V 33.000001"/></g><g id="g863"><path style="fill:none;stroke:#000;stroke-width:2;stroke-linecap:butt;stroke-linejoin:miter;stroke-opacity:1" id="path1073" d="M 19,19 H 30"/><path style="fill:none;stroke:#000;stroke-width:2;stroke-linecap:butt;stroke-linejoin:miter;stroke-opacity:1" id="path1075" d="M 19,15 H 37.000001"/><path style="fill:none;stroke:#000;stroke-width:2;stroke-linecap:butt;stroke-linejoin:miter;stroke-opacity:1" id="path1077" d="M 15,11 H 33.000001"/><path style="fill:none;stroke:#000;stroke-width:2;stroke-linecap:butt;stroke-linejoin:miter;stroke-opacity:1" id="path837" d="M 15,35 H 26.127273"/><path style="fill:none;stroke:#000;stroke-width:2;stroke-linecap:butt;stroke-linejoin:miter;stroke-opacity:1" id="path839" d="M 19,31 H 36.999999"/><path style="fill:none;stroke:#000;stroke-width:2;stroke-linecap:butt;stroke-linejoin:miter;stroke-opacity:1" id="path841" d="M 19,27 H 37"/></g></svg>