<svg xmlns="http://www.w3.org/2000/svg" xmlns:svg="http://www.w3.org/2000/svg" id="svg4" width="48" height="48" enable-background="new 0 0 24 24" version="1.1" viewBox="0 0 48 48" xml:space="preserve"><metadata id="metadata10"/><g id="g855"><path style="fill:none;stroke:#000;stroke-width:2;stroke-linejoin:round" id="rect1443" d="M 11,13 V 9.0857143 C 11,7.3762286 12.376229,6 14.085714,6 H 33.914286 C 35.623771,6 37,7.3762286 37,9.0857143 V 13 m 0,20 v 5.914286 C 37,40.623771 35.623771,42 33.914286,42 H 14.085714 C 12.376229,42 11,40.623771 11,38.914286 V 33"/><path style="fill:none;fill-rule:evenodd;stroke:#000;stroke-width:2;stroke-linecap:butt;stroke-linejoin:miter;stroke-dasharray:none;stroke-opacity:1" id="path904" d="M 41,13 V 33"/><path style="fill:none;fill-rule:evenodd;stroke:#000;stroke-width:2;stroke-linecap:butt;stroke-linejoin:miter;stroke-dasharray:none;stroke-opacity:1" id="path904-5" d="M 15,13 V 33.000001"/></g><g id="g863"><path style="fill:none;stroke:#000;stroke-width:2;stroke-linecap:butt;stroke-linejoin:miter;stroke-opacity:1" id="path1073" d="M 19,19 H 30"/><path style="fill:none;stroke:#000;stroke-width:2;stroke-linecap:butt;stroke-linejoin:miter;stroke-opacity:1" id="path1075" d="M 19,15 H 37.000001"/><path style="fill:none;stroke:#000;stroke-width:2;stroke-linecap:butt;stroke-linejoin:miter;stroke-opacity:1" id="path1077" d="M 15,11 H 33.000001"/><path style="fill:none;stroke:#000;stroke-width:2;stroke-linecap:butt;stroke-linejoin:miter;stroke-opacity:1" id="path837" d="M 15,35 H 26.127273"/><path style="fill:none;stroke:#000;stroke-width:2;stroke-linecap:butt;stroke-linejoin:miter;stroke-opacity:1" id="path839" d="M 19,31 H 36.999999"/><path style="fill:none;stroke:#000;stroke-width:2;stroke-linecap:butt;stroke-linejoin:miter;stroke-opacity:1" id="path841" d="M 19,27 H 37"/></g><g id="g1417" transform="matrix(0.56024472,0,0,0.56024472,42.564614,22.358165)" style="stroke-width:.89246713;fill:#fff;stroke:#fff;stroke-opacity:1;stroke-dasharray:none"><g id="path88" style="stroke:#fff;stroke-opacity:1;stroke-width:.89246713;stroke-dasharray:none"><path style="color:#000;stroke:#fff;stroke-width:.89246713;stroke-linejoin:round;stroke-opacity:1;stroke-dasharray:none" id="path1429" d="m -13.895556,4.9357161 -0.301144,4.510882 a 13.491239,13.491239 0 0 0 -4.882292,2.8194579 l -4.056657,-1.995077 -1.92732,3.337676 -1.927319,3.337676 3.756767,2.51706 a 13.491239,13.491239 0 0 0 -0.298634,2.818203 13.491239,13.491239 0 0 0 0.298634,2.818204 l -3.756767,2.517059 1.927319,3.337677 1.92732,3.337677 4.056657,-1.995076 a 13.491239,13.491239 0 0 0 4.882292,2.81946 l 0.301144,4.51088 h 3.854639 3.8546417 l 0.301144,-4.51088 a 13.491239,13.491239 0 0 0 4.882291,-2.81946 l 4.056658,1.995076 1.92732,-3.337677 1.92732,-3.337677 -3.75677,-2.517059 a 13.491239,13.491239 0 0 0 0.298637,-2.818204 13.491239,13.491239 0 0 0 -0.298637,-2.818203 l 3.75677,-2.51706 -1.92732,-3.337676 -1.92732,-3.337676 -4.056658,1.995077 a 13.491239,13.491239 0 0 0 -4.882291,-2.8194569 l -0.301144,-4.510883 h -3.8546417 z"/><path style="color:#000;fill:#000;stroke:#fff;stroke-linejoin:round;stroke-opacity:1;stroke-width:.89246713;stroke-dasharray:none" id="path1431" d="m -13.896484,3.1503906 a 1.7851128,1.7851128 0 0 0 -1.779297,1.6660156 l -0.230469,3.4472657 c -1.195195,0.5005226 -2.310822,1.1447702 -3.341797,1.9296871 l -3.099609,-1.5234371 a 1.7851128,1.7851128 0 0 0 -2.333985,0.7089844 l -1.927734,3.3378907 -1.925781,3.33789 a 1.7851128,1.7851128 0 0 0 0.550781,2.375 l 2.873047,1.921875 c -0.08242,0.642458 -0.204853,1.281108 -0.205078,1.929688 2.25e-4,0.64858 0.122658,1.28723 0.205078,1.929687 l -2.873047,1.923829 a 1.7851128,1.7851128 0 0 0 -0.550781,2.375 l 1.925781,3.33789 1.927734,3.337891 a 1.7851128,1.7851128 0 0 0 2.333985,0.708984 l 3.099609,-1.52539 c 1.030651,0.784745 2.145048,1.429167 3.339844,1.929687 l 0.232422,3.447266 a 1.7851128,1.7851128 0 0 0 1.779297,1.666015 h 3.855468 3.8554691 A 1.7851128,1.7851128 0 0 0 -4.40625,39.746094 l 0.2324219,-3.447266 c 1.1947958,-0.50052 2.3091935,-1.144942 3.33984372,-1.929687 l 3.09960938,1.52539 a 1.7851128,1.7851128 0 0 0 2.3339844,-0.708984 l 1.9277343,-3.337891 1.9277344,-3.33789 a 1.7851128,1.7851128 0 0 0 -0.5527344,-2.375 L 5.0292969,24.210937 C 5.1117174,23.56848 5.2341489,22.92983 5.234375,22.28125 5.2341489,21.63267 5.1117174,20.99402 5.0292969,20.351562 l 2.8730468,-1.921875 a 1.7851128,1.7851128 0 0 0 0.5527344,-2.375 L 6.5273437,12.716797 4.5996094,9.3789063 A 1.7851128,1.7851128 0 0 0 2.265625,8.6699219 L -0.83398438,10.193359 C -1.8649586,9.4084424 -2.9805867,8.7641943 -4.1757812,8.2636719 L -4.40625,4.8164062 A 1.7851128,1.7851128 0 0 0 -6.1855469,3.1503906 h -3.8554691 z m 1.669921,3.5703125 h 2.185547 2.1855473 l 0.1894531,2.8457032 a 1.7851128,1.7851128 0 0 0 1.2304687,1.5781247 c 1.5686783,0.508036 3.0122428,1.342518 4.2363281,2.447266 a 1.7851128,1.7851128 0 0 0 1.98437505,0.275391 L 2.34375,12.609375 3.4355469,14.501953 4.5273437,16.392578 2.1582031,17.980469 A 1.7851128,1.7851128 0 0 0 1.40625,19.835937 c 0.1719853,0.803758 0.259479,1.623361 0.2597656,2.445313 -2.865e-4,0.821952 -0.08778,1.641555 -0.2597656,2.445312 a 1.7851128,1.7851128 0 0 0 0.7519531,1.855469 L 4.5273437,28.169922 3.4355469,30.0625 2.34375,31.953125 -0.21484375,30.695312 a 1.7851128,1.7851128 0 0 0 -1.98437505,0.277344 c -1.224085,1.104749 -2.6676496,1.937276 -4.2363281,2.445313 a 1.7851128,1.7851128 0 0 0 -1.2304687,1.580078 l -0.1894531,2.84375 h -2.1855473 -2.185547 l -0.189453,-2.84375 a 1.7851128,1.7851128 0 0 0 -1.230468,-1.580078 c -1.568679,-0.508037 -3.012243,-1.340564 -4.236328,-2.445313 a 1.7851128,1.7851128 0 0 0 -1.984375,-0.277344 l -2.558594,1.257813 -1.091797,-1.890625 -1.091797,-1.892578 2.369141,-1.587891 a 1.7851128,1.7851128 0 0 0 0.751953,-1.855469 c -0.171985,-0.803758 -0.25948,-1.62336 -0.259766,-2.445312 2.86e-4,-0.821952 0.08778,-1.641555 0.259766,-2.445313 a 1.7851128,1.7851128 0 0 0 -0.751953,-1.855468 l -2.369141,-1.587891 1.091797,-1.890625 1.091797,-1.892578 2.558594,1.257813 a 1.7851128,1.7851128 0 0 0 1.984375,-0.275391 c 1.224085,-1.104748 2.667649,-1.93923 4.236328,-2.447266 a 1.7851128,1.7851128 0 0 0 1.230468,-1.5781247 z"/></g><g id="path839-3" style="stroke:#fff;stroke-opacity:1;stroke-width:.89246713;stroke-dasharray:none"><path style="color:#000;stroke:#fff;stroke-width:.89246713;stroke-linejoin:round;stroke-opacity:1;stroke-dasharray:none" id="path1435" d="m -4.7467971,22.281595 a 5.2941175,5.2941175 0 0 1 -5.2941179,5.294118 5.2941175,5.2941175 0 0 1 -5.294117,-5.294118 5.2941175,5.2941175 0 0 1 5.294117,-5.294117 5.2941175,5.2941175 0 0 1 5.2941179,5.294117 z"/><path style="color:#000;fill:#000;stroke:#fff;stroke-linejoin:round;stroke-opacity:1;stroke-width:.89246713;stroke-dasharray:none" id="path1437" d="m -10.041016,15.203125 c -3.888506,0 -7.078125,3.189618 -7.078125,7.078125 0,3.888507 3.189619,7.080078 7.078125,7.080078 3.8885069,0 7.0800785,-3.191571 7.0800785,-7.080078 0,-3.888507 -3.1915716,-7.078125 -7.0800785,-7.078125 z m 0,3.568359 c 1.9592087,0 3.509766,1.550558 3.509766,3.509766 0,1.959208 -1.5505573,3.509766 -3.509766,3.509766 -1.959208,0 -3.509765,-1.550558 -3.509765,-3.509766 0,-1.959208 1.550557,-3.509766 3.509765,-3.509766 z"/></g></g></svg>