<svg xmlns="http://www.w3.org/2000/svg" xmlns:svg="http://www.w3.org/2000/svg" id="svg4" width="48" height="48" enable-background="new 0 0 24 24" version="1.1" viewBox="0 0 48 48" xml:space="preserve"><metadata id="metadata10"/><rect style="fill:none;stroke:#000;stroke-width:2;stroke-linejoin:round" id="rect1443" width="26" height="36" x="11" y="6" ry="3.086"/><g id="g444"><path style="fill:none;stroke:#000;stroke-width:2;stroke-linecap:butt;stroke-linejoin:miter;stroke-opacity:1" id="path1073" d="M 15,19 H 26"/><path style="fill:none;stroke:#000;stroke-width:2;stroke-linecap:butt;stroke-linejoin:miter;stroke-opacity:1" id="path1075" d="M 15,15 H 33.000001"/><path style="fill:none;stroke:#000;stroke-width:2;stroke-linecap:butt;stroke-linejoin:miter;stroke-opacity:1" id="path1077" d="M 15,11 H 33.000001"/><path style="fill:none;stroke:#000;stroke-width:2;stroke-linecap:butt;stroke-linejoin:miter;stroke-opacity:1" id="path837" d="M 15,35 H 26.127273"/><path style="fill:none;stroke:#000;stroke-width:2;stroke-linecap:butt;stroke-linejoin:miter;stroke-opacity:1" id="path839" d="M 15,31 H 32.999999"/><path style="fill:none;stroke:#000;stroke-width:2;stroke-linecap:butt;stroke-linejoin:miter;stroke-opacity:1" id="path841" d="M 15,27 H 33"/></g><g id="g9367" transform="matrix(1.25,0,0,1.25,-39,5.75)"><circle style="fill:#fff;fill-opacity:1;fill-rule:evenodd;stroke:none;stroke-width:.5;stroke-linecap:round;stroke-linejoin:round;stroke-opacity:1" id="path9155" cx="60" cy="25" r="8.8"/><path id="path8999" d="M 63.6,26.72 C 63.859805,26.183625 63.996468,25.595973 64,25 64,22.790861 62.209139,21 60,21 v 2 L 56.88,20 60,17 v 2 c 3.313708,0 6,2.686292 6,6 0.002,1.130471 -0.320791,2.237722 -0.93,3.19 M 54,25 c -0.002,-1.130471 0.320791,-2.237722 0.93,-3.19 l 1.47,1.47 c -0.259805,0.536375 -0.396468,1.124027 -0.4,1.72 0,2.209139 1.790861,4 4,4 v -2 l 3,3 -3,3 v -2 c -3.313708,0 -6,-2.686292 -6,-6 z" style="fill:#000;fill-opacity:1;stroke:none;stroke-opacity:1"/></g></svg>