<svg xmlns="http://www.w3.org/2000/svg" xmlns:svg="http://www.w3.org/2000/svg" id="svg4" width="48" height="48" enable-background="new 0 0 24 24" version="1.1" viewBox="0 0 48 48" xml:space="preserve"><metadata id="metadata10"/><g id="g910" fill="none" stroke="#000" stroke-width="1.6" transform="matrix(-1,0,0,1,46.299999,2.9999387)"><path id="path1207" d="m 26,5.1 c 6.4,0.33 9.3,2.1 11,6.6"/><path id="path1209" d="m 33,11 4.8,1 1,-4.8"/></g><g id="g906" fill="none" stroke="#000" stroke-linejoin="round" stroke-width="2" transform="matrix(-1,0,0,1,46.799999,1.5)"><path id="rect1037" d="M 2.8,6.5 2.799999,5 c -9e-7,-1.4 1.1,-2.5 2.5,-2.5 h 1.3 M 9.4,2.5 h 5.799999 M 18,2.5 h 1.3 c 1.4,0 2.5,1.1 2.5,2.5 v 1.5 m 0,2.75 v 4 m -19.000001,0 v -4" style="stroke-width:2;stroke-miterlimit:4;stroke-dasharray:none"/><path id="rect1037-6" d="M 15.2,33.5 H 9.5 m -2.9,0 H 5.3 C 3.9,33.5 2.8,32.4 2.8,31 v -1.5 m 0,-2.75 v -4" style="stroke-width:2;stroke-miterlimit:4;stroke-dasharray:none"/></g><path style="fill:none;fill-rule:evenodd;stroke:#000;stroke-width:2;stroke-linecap:butt;stroke-linejoin:round;stroke-miterlimit:4;stroke-dasharray:none;stroke-opacity:1" id="path901" d="m 43.999999,17.5 v 4"/><path style="fill:none;fill-rule:evenodd;stroke:#000;stroke-width:2;stroke-linecap:butt;stroke-linejoin:round;stroke-miterlimit:4;stroke-dasharray:none;stroke-opacity:1" id="path903" d="m 24.999999,17.5 v 2.7"/><g id="g876"><rect id="rect1443" width="19" height="31" x="20" y="4" fill="none" stroke="#000" stroke-linejoin="round" stroke-width="2" ry="2.6" transform="matrix(0,1,1,0,0,0)"/><path style="fill:#000;fill-opacity:1;fill-rule:evenodd;stroke:#000;stroke-width:2;stroke-linecap:butt;stroke-linejoin:round;stroke-miterlimit:4;stroke-dasharray:none;stroke-opacity:1" id="path842" d="M 30.999999,39 V 20 c 2,0 4.046356,0.152585 4,3 v 13 c 0,2 -1,3 -4,3 z"/></g></svg>