<svg xmlns="http://www.w3.org/2000/svg" xmlns:svg="http://www.w3.org/2000/svg" id="svg4" width="48" height="48" enable-background="new 0 0 24 24" version="1.1" viewBox="0 0 48 48" xml:space="preserve"><path style="fill:none;fill-rule:evenodd;stroke:#000;stroke-width:2;stroke-linecap:butt;stroke-linejoin:miter;stroke-miterlimit:4;stroke-dasharray:none;stroke-opacity:1" id="path842-7" d="M 16.5,21 V 15"/><metadata id="metadata10"/><rect style="fill:none;stroke:#000;stroke-width:2;stroke-linejoin:round" id="rect1443" width="26" height="36" x="-37" y="6" ry="3.086" transform="rotate(-90)"/><path style="fill:none;stroke:#000;stroke-width:2;stroke-linecap:butt;stroke-linejoin:miter;stroke-opacity:1" id="path837" d="M 37,33 V 21.872727"/><path style="fill:none;stroke:#000;stroke-width:2;stroke-linecap:butt;stroke-linejoin:miter;stroke-opacity:1" id="path839" d="M 33,33 V 15.000001"/><path style="fill:none;stroke:#000;stroke-width:2;stroke-linecap:butt;stroke-linejoin:miter;stroke-opacity:1" id="path841" d="M 29,33 V 15"/><path style="fill:none;fill-rule:evenodd;stroke:#000;stroke-width:2;stroke-linecap:butt;stroke-linejoin:miter;stroke-miterlimit:4;stroke-dasharray:none;stroke-opacity:1" id="path842" d="M 21,19.5 V 15"/><path style="fill:none;fill-rule:evenodd;stroke:#000;stroke-width:2.00001;stroke-linecap:butt;stroke-linejoin:miter;stroke-miterlimit:4;stroke-dasharray:none;stroke-opacity:1" id="path842-4" d="M 12.000005,23 V 15"/><g id="text923" aria-label="A" transform="rotate(-90,24,24)" style="font-weight:700;font-size:16px;line-height:125%;font-family:sans-serif;-inkscape-font-specification:'sans-serif Bold';letter-spacing:0;word-spacing:0;fill:none;stroke:#000;stroke-width:1px;stroke-linecap:butt;stroke-linejoin:miter;stroke-opacity:1"><path style="font-style:normal;font-variant:normal;font-weight:700;font-stretch:normal;font-size:17.3333px;font-family:Diavlo;-inkscape-font-specification:'Diavlo Bold';fill:#000;fill-opacity:1;stroke:none;stroke-opacity:1" id="path925" d="M 20.910655,9.9999999 C 20.650656,10.173333 18.709326,11.73333 17.547995,15.30399 l -1.47333,4.558657 c -0.416,1.299998 -0.727999,2.339996 -1.074665,2.859995 0,0 0.571999,0.190666 0.970665,0.190666 1.62933,0 2.027996,-1.403997 2.461328,-2.703995 l 0.294666,-0.918665 h 4.367992 l 0.294666,0.918665 c 0.433333,1.299998 0.831998,2.703995 2.461329,2.703995 0.398665,0 0.970664,-0.190666 0.970664,-0.190666 -0.346666,-0.519999 -0.658665,-1.559997 -1.074664,-2.859995 L 24.273315,15.30399 c -1.161331,-3.57066 -3.10266,-5.130657 -3.36266,-5.3039901 z m 0,2.8253281 c 0,0 0.710665,1.47333 1.143998,2.929327 l 0.537332,1.802664 h -3.36266 l 0.537332,-1.802664 c 0.433333,-1.455997 0.866665,-2.495995 1.143998,-2.929327 z"/></g></svg>